<svg width="40" height="40" viewBox="0 0 40 40" fill="none" xmlns="http://www.w3.org/2000/svg">
<path d="M20 10.9995C17.556 10.9995 17.2496 11.0151 16.2898 11.0546C15.3319 11.0983 14.679 11.2482 14.1066 11.4708C13.5148 11.7007 13.0109 12.0097 12.5106 12.5101C12.0103 13.0104 11.7041 13.5115 11.4742 14.1033C11.2516 14.6757 11.0989 15.3313 11.0552 16.2892C11.0113 17.249 11 17.5554 11 19.9994C11 22.4435 11.0113 22.7498 11.0552 23.7096C11.0989 24.6675 11.2516 25.3204 11.4742 25.8928C11.7041 26.4846 12.0103 26.9857 12.5106 27.486C13.0109 27.9864 13.5148 28.2952 14.1066 28.5252C14.679 28.7476 15.3319 28.9005 16.2898 28.9442C17.2496 28.988 17.556 28.9964 20 28.9964C22.444 28.9964 22.7504 28.9823 23.7102 28.9442C24.6681 28.9005 25.3238 28.7476 25.8961 28.5252C26.4879 28.2952 26.9891 27.9864 27.4894 27.486C27.9897 26.9857 28.2959 26.4846 28.5258 25.8928C28.7484 25.3204 28.9011 24.6675 28.9448 23.7096C28.9887 22.7498 29 22.4435 29 19.9994C29 17.5554 28.9887 17.249 28.9448 16.2892C28.9011 15.3313 28.7484 14.6757 28.5258 14.1033C28.2959 13.5115 27.9897 13.0104 27.4894 12.5101C26.9891 12.0097 26.4879 11.7007 25.8961 11.4708C25.3238 11.2482 24.6681 11.0983 23.7102 11.0546C22.7504 11.0108 22.444 10.9995 20 10.9995ZM20 12.6203C22.4029 12.6203 22.6869 12.6344 23.6358 12.6725C24.5132 12.712 24.9919 12.8608 25.309 12.984C25.7291 13.1473 26.0278 13.3417 26.3427 13.6566C26.6576 13.9715 26.8521 14.2703 27.0153 14.6903C27.1385 15.0074 27.2867 15.4861 27.3268 16.3634C27.37 17.3124 27.3791 17.5965 27.3791 19.9992C27.3791 22.4022 27.3692 22.6863 27.3268 23.6351C27.2867 24.5125 27.1385 24.9884 27.0153 25.3055C26.8521 25.7256 26.6576 26.0269 26.3427 26.3419C26.0278 26.6567 25.7291 26.8512 25.309 27.0145C24.9919 27.1373 24.5132 27.2834 23.6358 27.3233C22.687 27.3671 22.4031 27.3755 20 27.3755C17.5969 27.3755 17.313 27.3614 16.3642 27.3233C15.4868 27.2838 15.0109 27.1377 14.6937 27.0145C14.2737 26.8512 13.9722 26.6567 13.6573 26.3419C13.3424 26.0269 13.148 25.7256 12.9847 25.3055C12.8615 24.9884 12.7161 24.5125 12.676 23.6351C12.6328 22.6863 12.6236 22.4022 12.6236 19.9992C12.6236 17.5965 12.6335 17.3124 12.676 16.3634C12.7161 15.4861 12.8615 15.0074 12.9847 14.6903C13.148 14.2703 13.3424 13.9715 13.6573 13.6566C13.9722 13.3417 14.2737 13.1473 14.6937 12.984C15.0109 12.8612 15.4868 12.7126 16.3642 12.6725C17.3131 12.6287 17.5971 12.6203 20 12.6203ZM24.8046 14.1143C24.2082 14.1143 23.724 14.5984 23.724 15.1948C23.724 15.7912 24.2082 16.2753 24.8046 16.2753C25.401 16.2753 25.8851 15.7912 25.8851 15.1948C25.8851 14.5984 25.401 14.1143 24.8046 14.1143ZM20 15.3767C17.4478 15.3767 15.3801 17.4473 15.3801 19.9994C15.3801 22.5516 17.4478 24.6192 20 24.6192C22.5522 24.6192 24.6226 22.5516 24.6226 19.9994C24.6226 17.4473 22.5522 15.3767 20 15.3767ZM20 17.0003C21.6567 17.0003 22.9991 18.3428 22.9991 19.9994C22.9991 21.6561 21.6567 22.9984 20 22.9984C18.3433 22.9984 17.0009 21.6561 17.0009 19.9994C17.0009 18.3428 18.3433 17.0003 20 17.0003Z" fill="white"/>
</svg>
