<svg width="40" height="40" viewBox="0 0 40 40" fill="none" xmlns="http://www.w3.org/2000/svg">
<path d="M12.042 19.6616C12.042 19.6616 19.5609 16.8078 22.1685 15.8029C23.1681 15.401 26.5581 14.1147 26.5581 14.1147C26.5581 14.1147 28.1227 13.5521 27.9923 14.9186C27.9487 15.4813 27.6011 17.4508 27.2534 19.5811C26.7319 22.5957 26.1669 25.8916 26.1669 25.8916C26.1669 25.8916 26.08 26.816 25.3412 26.9768C24.6023 27.1376 23.3854 26.4141 23.1681 26.2533C22.9943 26.1327 19.9086 24.324 18.7786 23.4398C18.4744 23.1986 18.1267 22.7163 18.8221 22.1535C20.3866 20.8272 22.2555 19.1792 23.3854 18.1342C23.9069 17.6518 24.4285 16.5263 22.2555 17.8929C19.1697 19.8624 16.1274 21.7114 16.1274 21.7114C16.1274 21.7114 15.4322 22.1134 14.1283 21.7516C12.8245 21.3898 11.3033 20.9076 11.3033 20.9076C11.3033 20.9076 10.2604 20.3045 12.0423 19.6616H12.042Z" stroke="white" stroke-width="1.5"/>
</svg>
