<svg width="40" height="40" viewBox="0 0 40 40" fill="none" xmlns="http://www.w3.org/2000/svg">
<path d="M15.7215 17.1323H12.5077C12.3651 17.1323 12.2495 17.2479 12.2495 17.3905V27.715C12.2495 27.8576 12.3651 27.9732 12.5077 27.9732H15.7215C15.8641 27.9732 15.9797 27.8576 15.9797 27.715V17.3905C15.9797 17.2479 15.8641 17.1323 15.7215 17.1323Z" fill="white"/>
<path d="M14.1163 12C12.9469 12 11.9956 12.9503 11.9956 14.1184C11.9956 15.287 12.9469 16.2376 14.1163 16.2376C15.2847 16.2376 16.2353 15.2869 16.2353 14.1184C16.2353 12.9503 15.2847 12 14.1163 12Z" fill="white"/>
<path d="M23.8969 16.8757C22.6061 16.8757 21.6519 17.4306 21.0732 18.0611V17.3905C21.0732 17.248 20.9576 17.1323 20.815 17.1323H17.7372C17.5946 17.1323 17.479 17.248 17.479 17.3905V27.715C17.479 27.8577 17.5946 27.9732 17.7372 27.9732H20.944C21.0866 27.9732 21.2022 27.8577 21.2022 27.715V22.6068C21.2022 20.8855 21.6697 20.2148 22.8697 20.2148C24.1765 20.2148 24.2803 21.2899 24.2803 22.6954V27.7151C24.2803 27.8577 24.3959 27.9733 24.5385 27.9733H27.7465C27.8891 27.9733 28.0047 27.8577 28.0047 27.7151V22.0519C28.0047 19.4923 27.5166 16.8757 23.8969 16.8757Z" fill="white"/>
</svg>
